<mxfile host="app.diagrams.net" modified="2023-04-29T02:00:22.205Z" agent="Mozilla/5.0 (Macintosh; Intel Mac OS X 10_15_7) AppleWebKit/537.36 (KHTML, like Gecko) Chrome/112.0.0.0 Safari/537.36" etag="btn6DaOocgrWm1MuKMCx" version="21.2.3" type="github">
  <diagram id="3228e29e-7158-1315-38df-8450db1d8a1d" name="Page-1">
    <mxGraphModel dx="687" dy="854" grid="0" gridSize="10" guides="1" tooltips="1" connect="1" arrows="1" fold="1" page="1" pageScale="1" pageWidth="500" pageHeight="229" background="#EFF1F3" math="0" shadow="0">
      <root>
        <mxCell id="0" />
        <mxCell id="1" parent="0" />
        <mxCell id="yI97bCa5uiuBW91l9z7N-1" value="" style="shape=image;verticalLabelPosition=bottom;labelBackgroundColor=default;verticalAlign=top;aspect=fixed;imageAspect=0;image=data:image/svg+xml,PHN2ZyB4bWxuczp4bGluaz0iaHR0cDovL3d3dy53My5vcmcvMTk5OS94bGluayIgeG1sbnM9Imh0dHA6Ly93d3cudzMub3JnLzIwMDAvc3ZnIiBoZWlnaHQ9IjEyOCIgd2lkdGg9IjEyOCIgdmVyc2lvbj0iMS4xIiB2aWV3Qm94PSIwIDAgMTAyNCAxMDI0IiBjbGFzcz0iaWNvbiI+PHBhdGggZmlsbD0iI0VFNzQyMyIgZD0iTTQ4Mi41ODIzNDQgMTUzLjcyNzY4MWE0MzAuNzk1MDEyIDQzMC43OTUwMTIgMCAxIDAgNDMwLjc5NTAxMyA0MzAuNzk1MDEyQTQzMS4zMDU3MzYgNDMxLjMwNTczNiAwIDAgMCA0ODIuNTgyMzQ0IDE1My43Mjc2ODF6Ii8+PHBhdGggZmlsbD0iI0UxNkQyNSIgZD0iTTc2Ny4wMDQwOSAyNjEuMjg1OTg1YTUxNS44MzA0MjQgNTE1LjgzMDQyNCAwIDAgMS00ODMuMDQxOTk1IDY5Ny4wMzUwMTNoLTE1LjMyMTY5NmE0MzAuNTM5NjUxIDQzMC41Mzk2NTEgMCAwIDAgNDk4LjQ2NTgzNS02OTYuODMwNzI0eiIvPjxwYXRoIGZpbGw9IiM4QkNBODQiIGQ9Ik02MTguMDc3MjA3IDEzMy45NjI2OTNhMTkyLjU5MzcxNiAxOTIuNTkzNzE2IDAgMCAwIDU5LjAzOTYwMS0xNy4xNjAyOTkgMTkwLjU1MDgyMyAxOTAuNTUwODIzIDAgMCAwIDUwLjQ1OTQ1MS0zNS4zNDIwNDUgMTY0LjQ1Mjg2OCAxNjQuNDUyODY4IDAgMCAwIDM1Ljc1MDYyNC01MS40Mjk4MjUgMTU1LjAwNDQ4OSAxNTUuMDA0NDg5IDAgMCAwLTQxLjM2ODU3OS01LjUxNTgxMSAxOTMuMTA0NDM5IDE5My4xMDQ0MzkgMCAwIDAtMjEuMjk3MTU3IDEuMjI1NzM2IDE4My44NjAzNDkgMTgzLjg2MDM0OSAwIDAgMC01OC44ODYzODQgMTcuMzEzNTE2IDE5MS41MjExOTcgMTkxLjUyMTE5NyAwIDAgMC01MC41MTA1MjQgMzUuNDQ0MTkgMTY0Ljg2MTQ0NiAxNjQuODYxNDQ2IDAgMCAwLTM0LjcyOTE3NyA0OS42NDIyOTRjMTIuNTEyNzE4IDEuNzg3NTMxIDI0Ljg3MjIxOSA0LjE4NzkzIDM3LjEyOTU3NiA3LjA5OTA1MmgzLjM3MDc3M2M2LjQ4NjE4NSAwIDEzLjQ4MzA5Mi0wLjQ1OTY1MSAyMS4xNDM5NDEtMS4yMjU3MzV6IG0wIDAiLz48cGF0aCBmaWxsPSIjMDEwMTAxIiBkPSJNNDgyLjU4MjM0NCAxMDI0YTQ0NS45NjM0OTEgNDQ1Ljk2MzQ5MSAwIDEgMSA0NDYuMTE2NzA4LTQ0Ni4xMTY3MDggNDQ2LjYyNzQzMSA0NDYuNjI3NDMxIDAgMCAxLTQ0Ni4xMTY3MDggNDQ2LjExNjcwOHogbTAtODYxLjU5MDAyNWE0MTUuODMwODIzIDQxNS44MzA4MjMgMCAxIDAgMjkzLjcxNjkwOCAxMjEuODU4NTU0QTQxNS45MzI5NjggNDE1LjkzMjk2OCAwIDAgMCA0ODIuNTgyMzQ0IDE2Mi40MDk5NzV6Ii8+PHBhdGggZmlsbD0iIzAxMDEwMSIgZD0iTTU5Ni44ODIxOTUgMTUwLjUxMDEyNWgtNS4xMDcyMzJsLTEuNzM2NDU5LTAuNDA4NTc5Yy0xMi4yNTczNTctMi44NjAwNS0yNC4zMTA0MjQtNS4xMDcyMzItMzUuNzUwNjI0LTYuODQzNjkxbC0yMC4wNzE0MjEtMi45MTExMjIgOC40MjY5MzMtMTguNTM5MjUyYTE4MS4xMDI0NDQgMTgxLjEwMjQ0NCAwIDAgMSAzNy44NDQ1ODgtNTQuMTM2NjU4IDIwNy40NTU3NjEgMjA3LjQ1NTc2MSAwIDAgMSA1NC42OTg0NTQtMzguNDU3NDU2IDE5OS4xODIwNDUgMTk5LjE4MjA0NSAwIDAgMSA2My43MzgyNTQtMTguNzQzNTQyIDIwOC45MzY4NTggMjA4LjkzNjg1OCAwIDAgMSAyMy4xMzU3NjEtMS4zMjc4OEExNzEuNTAwODQ4IDE3MS41MDA4NDggMCAwIDEgNzY3LjM2MTU5NiAxNS4zMjE2OTZsMTcuMDU4MTU1IDQuNjk4NjUzLTcuMDQ3OTggMTYuMTg5OTI1YTE3OC43NTMxMTcgMTc4Ljc1MzExNyAwIDAgMS0zOC43MTI4MTggNTYuMTc5NTUxIDIwNi40MzQzMTQgMjA2LjQzNDMxNCAwIDAgMS01NC44MDA1OTkgMzguNDU3NDU3IDIwOC4wMTc1NTYgMjA4LjAxNzU1NiAwIDAgMS02My43MzgyNTQgMTguNTkwMzI0SDYxOS4yNTE4N2MtOS4xNDE5NDUgMC42NjM5NC0xNi4wODc3ODEgMS4wNzI1MTktMjIuMzY5Njc1IDEuMDcyNTE5eiBtLTEuNTgzMjQyLTMwLjY0MzM5MmgxLjU4MzI0MmM1LjEwNzIzMiAwIDExLjIzNTkxLTAuMzU3NTA2IDE5LjUwOTYyNS0xLjEyMzU5MUExNzcuMzc0MTY1IDE3Ny4zNzQxNjUgMCAwIDAgNjcwLjMyNDE5IDEwMi45NjE3OTZhMTc1LjIyOTEyNyAxNzUuMjI5MTI3IDAgMCAwIDQ2LjM3MzY2NS0zMi40ODE5OTZBMTU4Ljk4ODEzIDE1OC45ODgxMyAwIDAgMCA3NDAuMjkzMjY3IDQwLjg1Nzg1NWExNTcuNDU1OTYgMTU3LjQ1NTk2IDAgMCAwLTM4LjA5OTk1IDAgMTY4LjUzODY1MyAxNjguNTM4NjUzIDAgMCAwLTUzLjgzMDIyNSAxNS44MzI0MTkgMTc2LjUwNTkzNSAxNzYuNTA1OTM1IDAgMCAwLTQ2LjUyNjg4MyAzMi42ODYyODUgMTU3LjgxMzQ2NiAxNTcuODEzNDY2IDAgMCAwLTIxLjkxMDAyNCAyNy4xNzA0NzNxNy42MDk3NzYgMS41MzIxNyAxNS4zNzI3NjggMy4zMTk3MDF6Ii8+PHBhdGggZmlsbD0iI0JBNjEyOCIgZD0iTTM0NS44MTA2NzMgMzc3LjYyODcyOG0tMTMuMjI3NzMgMGExMy4yMjc3MzEgMTMuMjI3NzMxIDAgMSAwIDI2LjQ1NTQ2MSAwIDEzLjIyNzczMSAxMy4yMjc3MzEgMCAxIDAtMjYuNDU1NDYxIDBaIi8+PHBhdGggZmlsbD0iI0JBNjEyOCIgZD0iTTUxNy44NzMzMTcgNDgzLjUwMTY0Nm0tMTMuMjI3NzMxIDBhMTMuMjI3NzMxIDEzLjIyNzczMSAwIDEgMCAyNi40NTU0NjEgMCAxMy4yMjc3MzEgMTMuMjI3NzMxIDAgMSAwLTI2LjQ1NTQ2MSAwWiIvPjxwYXRoIGZpbGw9IiNCQTYxMjgiIGQ9Ik00MzguNDU1ODYgNjc1LjM4MDM0OW0tMTMuMjI3NzMgMGExMy4yMjc3MzEgMTMuMjI3NzMxIDAgMSAwIDI2LjQ1NTQ2MSAwIDEzLjIyNzczMSAxMy4yMjc3MzEgMCAxIDAtMjYuNDU1NDYxIDBaIi8+PHBhdGggZmlsbD0iI0JBNjEyOCIgZD0iTTUxNy44NzMzMTcgNjM1LjY5NzE1N20tMTMuMjI3NzMxIDBhMTMuMjI3NzMxIDEzLjIyNzczMSAwIDEgMCAyNi40NTU0NjEgMCAxMy4yMjc3MzEgMTMuMjI3NzMxIDAgMSAwLTI2LjQ1NTQ2MSAwWiIvPjxwYXRoIGZpbGw9IiNCQTYxMjgiIGQ9Ik00NjQuOTExMzIyIDU0OS42NDAyOTltLTEzLjIyNzczMSAwYTEzLjIyNzczMSAxMy4yMjc3MzEgMCAxIDAgMjYuNDU1NDYxIDAgMTMuMjI3NzMxIDEzLjIyNzczMSAwIDEgMC0yNi40NTU0NjEgMFoiLz48cGF0aCBmaWxsPSIjQkE2MTI4IiBkPSJNNTc3LjQyMzY0MSA1NDkuNjQwMjk5bS0xMy4yMjc3MzEgMGExMy4yMjc3MzEgMTMuMjI3NzMxIDAgMSAwIDI2LjQ1NTQ2MiAwIDEzLjIyNzczMSAxMy4yMjc3MzEgMCAxIDAtMjYuNDU1NDYyIDBaIi8+PHBhdGggZmlsbD0iI0JBNjEyOCIgZD0iTTU1MC45MTcxMDcgNzIxLjcwMjk0M20tMTMuMjI3NzMgMGExMy4yMjc3MzEgMTMuMjI3NzMxIDAgMSAwIDI2LjQ1NTQ2MSAwIDEzLjIyNzczMSAxMy4yMjc3MzEgMCAxIDAtMjYuNDU1NDYxIDBaIi8+PHBhdGggZmlsbD0iI0JBNjEyOCIgZD0iTTM3Mi4yNjYxMzUgNzE1LjA2MzU0MW0tMTMuMjI3NzMxIDBhMTMuMjI3NzMxIDEzLjIyNzczMSAwIDEgMCAyNi40NTU0NjEgMCAxMy4yMjc3MzEgMTMuMjI3NzMxIDAgMSAwLTI2LjQ1NTQ2MSAwWiIvPjxwYXRoIGZpbGw9IiNCQTYxMjgiIGQ9Ik00OTguMDA2MTg1IDc1NC43OTc4MDVtLTEzLjIyNzczMSAwYTEzLjIyNzczMSAxMy4yMjc3MzEgMCAxIDAgMjYuNDU1NDYxIDAgMTMuMjI3NzMxIDEzLjIyNzczMSAwIDEgMC0yNi40NTU0NjEgMFoiLz48cGF0aCBmaWxsPSIjQkE2MTI4IiBkPSJNMzkyLjEzMzI2NyA4NDAuODAzNTkxbS0xMy4yMjc3MzEgMGExMy4yMjc3MzEgMTMuMjI3NzMxIDAgMSAwIDI2LjQ1NTQ2MiAwIDEzLjIyNzczMSAxMy4yMjc3MzEgMCAxIDAtMjYuNDU1NDYyIDBaIi8+PHBhdGggZmlsbD0iI0JBNjEyOCIgZD0iTTUyNC40NjE2NDYgOTAwLjM1MzkxNW0tMTMuMjI3NzMxIDBhMTMuMjI3NzMxIDEzLjIyNzczMSAwIDEgMCAyNi40NTU0NjIgMCAxMy4yMjc3MzEgMTMuMjI3NzMxIDAgMSAwLTI2LjQ1NTQ2MiAwWiIvPjxwYXRoIGZpbGw9IiNCQTYxMjgiIGQ9Ik0yNzkuNjIwOTQ4IDgzNC4yMTUyNjJtLTEzLjIyNzczMSAwYTEzLjIyNzczMSAxMy4yMjc3MzEgMCAxIDAgMjYuNDU1NDYxIDAgMTMuMjI3NzMxIDEzLjIyNzczMSAwIDEgMC0yNi40NTU0NjEgMFoiLz48cGF0aCBmaWxsPSIjQkE2MTI4IiBkPSJNMjkyLjg0ODY3OCAyOTguMjExMjcybS0xMy4yMjc3MyAwYTEzLjIyNzczMSAxMy4yMjc3MzEgMCAxIDAgMjYuNDU1NDYxIDAgMTMuMjI3NzMxIDEzLjIyNzczMSAwIDEgMC0yNi40NTU0NjEgMFoiLz48cGF0aCBmaWxsPSIjQkE2MTI4IiBkPSJNNDMxLjgxNjQ1OSA5MDAuMzUzOTE1bS0xMy4yMjc3MzEgMGExMy4yMjc3MzEgMTMuMjI3NzMxIDAgMSAwIDI2LjQ1NTQ2MiAwIDEzLjIyNzczMSAxMy4yMjc3MzEgMCAxIDAtMjYuNDU1NDYyIDBaIi8+PHBhdGggZmlsbD0iI0JBNjEyOCIgZD0iTTUxNC41NTM2MTYgMjIyLjExMzUxNm0tMTMuMjI3NzMxIDBhMTMuMjI3NzMxIDEzLjIyNzczMSAwIDEgMCAyNi40NTU0NjIgMCAxMy4yMjc3MzEgMTMuMjI3NzMxIDAgMSAwLTI2LjQ1NTQ2MiAwWiIvPjxwYXRoIGZpbGw9IiNCQTYxMjgiIGQ9Ik03MDMuMTEyNjE4IDMwNC44NTA2NzNtLTEzLjIyNzczIDBhMTMuMjI3NzMxIDEzLjIyNzczMSAwIDEgMCAyNi40NTU0NjEgMCAxMy4yMjc3MzEgMTMuMjI3NzMxIDAgMSAwLTI2LjQ1NTQ2MSAwWiIvPjxwYXRoIGZpbGw9IiNCQTYxMjgiIGQ9Ik01MTEuMjMzOTE1IDM1Ny43NjE1OTZtLTEzLjIyNzczIDBhMTMuMjI3NzMxIDEzLjIyNzczMSAwIDEgMCAyNi40NTU0NjEgMCAxMy4yMjc3MzEgMTMuMjI3NzMxIDAgMSAwLTI2LjQ1NTQ2MSAwWiIvPjxwYXRoIGZpbGw9IiNCQTYxMjgiIGQ9Ik00MjguNTQ3ODMgMjgxLjY2Mzg0bS0xMy4yMjc3MyAwYTEzLjIyNzczMSAxMy4yMjc3MzEgMCAxIDAgMjYuNDU1NDYxIDAgMTMuMjI3NzMxIDEzLjIyNzczMSAwIDEgMC0yNi40NTU0NjEgMFoiLz48cGF0aCBmaWxsPSIjQkE2MTI4IiBkPSJNNTc3LjQyMzY0MSAzMDQuODUwNjczbS0xMy4yMjc3MzEgMGExMy4yMjc3MzEgMTMuMjI3NzMxIDAgMSAwIDI2LjQ1NTQ2MiAwIDEzLjIyNzczMSAxMy4yMjc3MzEgMCAxIDAtMjYuNDU1NDYyIDBaIi8+PHBhdGggZmlsbD0iI0JBNjEyOCIgZD0iTTQwNS4zNjA5OTggNDEwLjcyMzU5MW0tMTMuMjI3NzMxIDBhMTMuMjI3NzMxIDEzLjIyNzczMSAwIDEgMCAyNi40NTU0NjEgMCAxMy4yMjc3MzEgMTMuMjI3NzMxIDAgMSAwLTI2LjQ1NTQ2MSAwWiIvPjxwYXRoIGZpbGw9IiNCQTYxMjgiIGQ9Ik02NzAuMDY4ODI4IDQ4My41MDE2NDZtLTEzLjIyNzczMSAwYTEzLjIyNzczMSAxMy4yMjc3MzEgMCAxIDAgMjYuNDU1NDYyIDAgMTMuMjI3NzMxIDEzLjIyNzczMSAwIDEgMC0yNi40NTU0NjIgMFoiLz48cGF0aCBmaWxsPSIjQkE2MTI4IiBkPSJNNzgyLjUzMDA3NSA0NzAuMjczOTE1bS0xMy4yMjc3MzEgMGExMy4yMjc3MzEgMTMuMjI3NzMxIDAgMSAwIDI2LjQ1NTQ2MSAwIDEzLjIyNzczMSAxMy4yMjc3MzEgMCAxIDAtMjYuNDU1NDYxIDBaIi8+PHBhdGggZmlsbD0iI0JBNjEyOCIgZD0iTTY1MC4yMDE2OTYgNzQxLjU3MDA3NW0tMTMuMjI3NzMxIDBhMTMuMjI3NzMxIDEzLjIyNzczMSAwIDEgMCAyNi40NTU0NjEgMCAxMy4yMjc3MzEgMTMuMjI3NzMxIDAgMSAwLTI2LjQ1NTQ2MSAwWiIvPjxwYXRoIGZpbGw9IiNCQTYxMjgiIGQ9Ik03NDkuNDM1MjEyIDY5NS4yNDc0ODFtLTEzLjIyNzczMSAwYTEzLjIyNzczMSAxMy4yMjc3MzEgMCAxIDAgMjYuNDU1NDYyIDAgMTMuMjI3NzMxIDEzLjIyNzczMSAwIDEgMC0yNi40NTU0NjIgMFoiLz48cGF0aCBmaWxsPSIjQkE2MTI4IiBkPSJNODA4Ljk4NTUzNiA1ODkuMzc0NTY0bS0xMy4yMjc3MzEgMGExMy4yMjc3MzEgMTMuMjI3NzMxIDAgMSAwIDI2LjQ1NTQ2MiAwIDEzLjIyNzczMSAxMy4yMjc3MzEgMCAxIDAtMjYuNDU1NDYyIDBaIi8+PHBhdGggZmlsbD0iI0JBNjEyOCIgZD0iTTY1MC4yMDE2OTYgNjI5LjA1Nzc1Nm0tMTMuMjI3NzMxIDBhMTMuMjI3NzMxIDEzLjIyNzczMSAwIDEgMCAyNi40NTU0NjEgMCAxMy4yMjc3MzEgMTMuMjI3NzMxIDAgMSAwLTI2LjQ1NTQ2MSAwWiIvPjxwYXRoIGZpbGw9IiNCQTYxMjgiIGQ9Ik02NzAuMDY4ODI4IDg0Ny40NDI5OTNtLTEzLjIyNzczMSAwYTEzLjIyNzczMSAxMy4yMjc3MzEgMCAxIDAgMjYuNDU1NDYyIDAgMTMuMjI3NzMxIDEzLjIyNzczMSAwIDEgMC0yNi40NTU0NjIgMFoiLz48cGF0aCBmaWxsPSIjQkE2MTI4IiBkPSJNMjAwLjI1NDU2NCA0NzAuMjczOTE1bS0xMy4yMjc3MzEgMGExMy4yMjc3MzEgMTMuMjI3NzMxIDAgMSAwIDI2LjQ1NTQ2MSAwIDEzLjIyNzczMSAxMy4yMjc3MzEgMCAxIDAtMjYuNDU1NDYxIDBaIi8+PHBhdGggZmlsbD0iI0JBNjEyOCIgZD0iTTM0NS44MTA2NzMgNTAzLjMxNzcwNm0tMTMuMjI3NzMgMGExMy4yMjc3MzEgMTMuMjI3NzMxIDAgMSAwIDI2LjQ1NTQ2MSAwIDEzLjIyNzczMSAxMy4yMjc3MzEgMCAxIDAtMjYuNDU1NDYxIDBaIi8+PHBhdGggZmlsbD0iI0JBNjEyOCIgZD0iTTE4MC4zODc0MzEgNjc1LjM4MDM0OW0tMTMuMjI3NzMgMGExMy4yMjc3MzEgMTMuMjI3NzMxIDAgMSAwIDI2LjQ1NTQ2MSAwIDEzLjIyNzczMSAxMy4yMjc3MzEgMCAxIDAtMjYuNDU1NDYxIDBaIi8+PHBhdGggZmlsbD0iI0JBNjEyOCIgZD0iTTM3Mi4yNjYxMzUgNjAyLjYwMjI5NG0tMTMuMjI3NzMxIDBhMTMuMjI3NzMxIDEzLjIyNzczMSAwIDEgMCAyNi40NTU0NjEgMCAxMy4yMjc3MzEgMTMuMjI3NzMxIDAgMSAwLTI2LjQ1NTQ2MSAwWiIvPjxwYXRoIGZpbGw9IiNCQTYxMjgiIGQ9Ik0xMTAuODc4MDA1IDUzOS43MzIyNjltLTEzLjIyNzczMSAwYTEzLjIyNzczMSAxMy4yMjc3MzEgMCAxIDAgMjYuNDU1NDYyIDAgMTMuMjI3NzMxIDEzLjIyNzczMSAwIDEgMC0yNi40NTU0NjIgMFoiLz48cGF0aCBmaWxsPSIjQkE2MTI4IiBkPSJNMjU5LjgwNDg4OCA1NjIuODY4MDNtLTEzLjIyNzczMSAwYTEzLjIyNzczMSAxMy4yMjc3MzEgMCAxIDAgMjYuNDU1NDYxIDAgMTMuMjI3NzMxIDEzLjIyNzczMSAwIDEgMC0yNi40NTU0NjEgMFoiLz48cGF0aCBmaWxsPSIjQkE2MTI4IiBkPSJNMjczLjAzMjYxOCA3MTUuMDYzNTQxbS0xMy4yMjc3MyAwYTEzLjIyNzczMSAxMy4yMjc3MzEgMCAxIDAgMjYuNDU1NDYxIDAgMTMuMjI3NzMxIDEzLjIyNzczMSAwIDEgMC0yNi40NTU0NjEgMFoiLz48L3N2Zz4=;" vertex="1" parent="1">
          <mxGeometry x="352" y="67" width="94" height="94" as="geometry" />
        </mxCell>
        <mxCell id="yI97bCa5uiuBW91l9z7N-2" value="" style="shape=image;verticalLabelPosition=bottom;labelBackgroundColor=default;verticalAlign=top;aspect=fixed;imageAspect=0;image=data:image/svg+xml,PHN2ZyB4bWxuczp4bGluaz0iaHR0cDovL3d3dy53My5vcmcvMTk5OS94bGluayIgeG1sbnM9Imh0dHA6Ly93d3cudzMub3JnLzIwMDAvc3ZnIiBoZWlnaHQ9IjEyOCIgd2lkdGg9IjEyOCIgdmVyc2lvbj0iMS4xIiB2aWV3Qm94PSIwIDAgMTAyNCAxMDI0IiBjbGFzcz0iaWNvbiI+PHBhdGggZmlsbD0iI0ZGQUE0RCIgZD0iTTc4NC4zIDU4OS45YzAgMTk2LjEtMTU5IDI3OC40LTM1NS4xIDI3OC40Uzc0LjEgNzg2LjEgNzQuMSA1ODkuOXMxNTktMzM4LjEgMzU1LjEtMzM4LjEgMzU1LjEgMTQyIDM1NS4xIDMzOC4xeiIvPjxwYXRoIGZpbGw9IiIgZD0iTTQyOS4yIDg3NS41QzIwMi40IDg3NS41IDY3IDc2OC43IDY3IDU4OS45YzAtMTk2LjggMTU1LjctMzQ1LjIgMzYyLjItMzQ1LjJzMzYyLjIgMTQ4LjQgMzYyLjIgMzQ1LjJjMC4xIDE3OC44LTEzNS4zIDI4NS42LTM2Mi4yIDI4NS42eiBtMC02MTYuNWMtMTk4LjQgMC0zNDggMTQyLjMtMzQ4IDMzMC45IDAgMjQ0LjkgMjQzLjQgMjcxLjMgMzQ4IDI3MS4zczM0OC0yNi40IDM0OC0yNzEuM2MwLTE4OC42LTE0OS42LTMzMC45LTM0OC0zMzAuOXoiLz48cGF0aCBmaWxsPSIiIGQ9Ik00MzkuMyAyODR2LTU4LjhjMC01LjUtNC41LTEwLTEwLTEwcy0xMCA0LjUtMTAgMTBWMjg0Yy0xMi43IDAuNy0yMS45IDIuNy0yMS45IDUgMCAyLjkgMTQuMyA1LjMgMzEuOSA1LjMgMTcuNiAwIDMxLjktMi40IDMxLjktNS4zIDAtMi4zLTkuMi00LjMtMjEuOS01eiIvPjxwYXRoIGZpbGw9IiM2NkNDNTQiIGQ9Ik03MTcuNiAxNzguNHMtNDQuNyA2Ny42LTExNS4zIDg0LTEzMy41IDUuMy0xNDAuNS0yNC43IDQ0LjctNjcuNiAxMTUuMy04NCAxNDAuNSAyNC43IDE0MC41IDI0Ljd6Ii8+PHBhdGggZmlsbD0iIiBkPSJNNzIxLjIgMTcyLjJjLTMtMS43LTczLjItNDIuMy0xNDUuNy0yNS41LTc1LjYgMTcuNS0xMjguNiA1OC4yLTEyMC42IDkyLjVsMC4zIDAuOWMtMjcuOSAzLjktMzIuMyAxNi4yLTMyLjkgMTguOS0wLjggMy45IDEuNSA4IDUuNCA4LjggMC42IDAuMSAxLjEgMC4yIDEuNiAwLjIgMy4yIDAgNi0yIDYuNy01LjMgMC0wLjEgMy43LTcuMiAyNi41LTkuMSA4LjcgOS45IDIzLjggMTcuMiA0NC40IDIwLjggMTAuMSAxLjggMjEuMSAyLjYgMzIuNyAyLjYgMjAuMSAwIDQyLjEtMi42IDY0LjMtNy44IDcyLjYtMTYuOCAxMTcuOC04NC4xIDExOS43LTg3bDQuMS02LjMtNi41LTMuN3ogbS0xMjAuNSA4My4yYy0zMy4yIDcuNy02NS42IDkuNS05MS4zIDUtOS45LTEuNy0xOC4xLTQuNC0yNC43LTcuNyAxOC43LTAuNyAzNi45LTYuMyA1Mi43LTE2LjNsMS44LTEuMmM0LjQtMi44IDkuOC02LjIgMTctMTAuNiAzLjQtMiA0LjQtNi40IDIuNC05LjgtMi0zLjQtNi40LTQuNC05LjgtMi40LTcuMyA0LjUtMTIuOCA3LjktMTcuMyAxMC44bC0xLjggMS4xYy0xMy44IDguOC0yOS43IDEzLjctNDYuMSAxNC4ybC0xMy45IDAuNGMtMC40LTAuOS0wLjgtMS45LTEuMS0yLjktNS4yLTIyLjQgMzguNy01OC45IDExMC03NS40IDExLjEtMi42IDIyLjItMy42IDMzLTMuNiA0Mi4yIDAgODAuMSAxNi40IDk1LjMgMjMuOS0xMi44IDE2LjgtNTEuNyA2MS45LTEwNi4yIDc0LjV6Ii8+PHBhdGggZmlsbD0iI0Y5Q0Q4NyIgZD0iTTkzMi43IDY2NC4yYzAgNzIuNS05OS45IDE2NC45LTIyMy4yIDE2NC45cy0yMjMuMi05Mi40LTIyMy4yLTE2NC45IDk2LjcgMS42IDIyMCAxLjYgMjI2LjQtNzQuMSAyMjYuNC0xLjZ6Ii8+PHBhdGggZmlsbD0iIiBkPSJNNzA5LjQgODM4Yy0xMjcuNiAwLTIzMC4zLTk0LjEtMjMwLjMtMTcyIDAtMTUuMyA0LTI1LjkgMTIuMy0zMi4yIDE2LjYtMTIuOCA0NS42LTUuMiA4NS42IDUuNCAzNS45IDkuNSA4MC43IDIxLjMgMTI5LjIgMjEuMyA0OC4xIDAgOTMuNy0xMS43IDEzMC40LTIxIDQyLjctMTAuOSA3My41LTE4LjggOTAuOC01LjMgOC4zIDYuNCAxMi4zIDE2LjkgMTIuMyAzMS44IDAuMSA3Ny45LTEwMi43IDE3Mi0yMzAuMyAxNzJ6TTUxNSA2NDEuM2MtNi40IDAtMTEuNSAxLjEtMTQuOSAzLjctNC41IDMuNS02LjcgMTAuMy02LjcgMjEgMCA3MSA5OS43IDE1Ny44IDIxNi4xIDE1Ny44czIxNi04Ni44IDIxNi0xNTcuOGMwLTEwLjMtMi4yLTE3LTYuOC0yMC42LTExLjgtOS4yLTQyLjctMS4zLTc4LjUgNy45LTM3LjUgOS42LTg0LjEgMjEuNS0xMzMuOSAyMS41LTUwLjQgMC05Ni4xLTEyLjEtMTMyLjgtMjEuOC0yMy4yLTYuMi00NC4yLTExLjctNTguNS0xMS43eiIvPjxwYXRoIGZpbGw9IiNGOUNEODciIGQ9Ik04OTEuOSA4MTYuNkM4NzIgODg2LjQgNzUwLjUgOTQ3LjcgNjMyIDkxMy44Yy0xMTguNS0zMy45LTE4OS4yLTE1MC4yLTE2OS4zLTIxOS45czkyLjYgMjguMSAyMTEuMSA2MiAyMzguMS05IDIxOC4xIDYwLjd6Ii8+PHBhdGggZmlsbD0iIiBkPSJNNzAxLjUgOTMyLjRjLTIzLjUgMC00Ny44LTMuMS03Mi0xMC4xLTU2LjQtMTYuMS0xMDYuMi01MS4zLTE0MC40LTk5LjItMzEuNy00NC4zLTQ0LjMtOTIuNy0zMy44LTEyOS41IDQuMi0xNC43IDExLTIzLjggMjAuNy0yNy42IDE5LjQtNy43IDQ1LjIgNy42IDgwLjkgMjguOCAzMS45IDE5IDcxLjcgNDIuNiAxMTguNCA1NiA0Ni4yIDEzLjIgOTMuMyAxNC41IDEzMS4yIDE1LjYgNDQgMS4zIDc1LjggMi4yIDg4LjggMTkuOSA2LjIgOC41IDcuMiAxOS42IDMuMSAzNC0xNy4zIDYwLjItMTAxIDExMi4xLTE5Ni45IDExMi4xek00ODcuMiA2NzguM2MtMi4yIDAtNC4xIDAuMy01LjkgMS01LjMgMi4xLTkuMyA4LjEtMTIuMiAxOC4zLTkuMyAzMi42IDIuNSA3Ni40IDMxLjcgMTE3LjMgMzIuMyA0NS4yIDc5LjQgNzguNiAxMzIuNyA5My44IDExMS45IDMxLjkgMjMxLjYtMjQgMjUxLjEtOTIuMyAyLjgtOS45IDIuNS0xNy0wLjktMjEuNy04LjgtMTIuMS00MC43LTEzLTc3LjctMTQtMzguNi0xLjEtODYuNy0yLjUtMTM0LjctMTYuMi00OC40LTEzLjgtODkuMS0zOC0xMjEuNy01Ny40LTI1LjctMTUuMy00OC40LTI4LjgtNjIuNC0yOC44eiIvPjwvc3ZnPg==;" vertex="1" parent="1">
          <mxGeometry x="54" y="52" width="112" height="112" as="geometry" />
        </mxCell>
        <mxCell id="yI97bCa5uiuBW91l9z7N-3" value="" style="shape=image;verticalLabelPosition=bottom;labelBackgroundColor=default;verticalAlign=top;aspect=fixed;imageAspect=0;image=data:image/svg+xml,PHN2ZyB4bWxuczp4bGluaz0iaHR0cDovL3d3dy53My5vcmcvMTk5OS94bGluayIgeG1sbnM9Imh0dHA6Ly93d3cudzMub3JnLzIwMDAvc3ZnIiBoZWlnaHQ9IjEyOCIgd2lkdGg9IjEyOCIgdmVyc2lvbj0iMS4xIiB2aWV3Qm94PSIwIDAgMTAyNCAxMDI0IiBjbGFzcz0iaWNvbiI+PHBhdGggZmlsbD0iIzRBOTE5QiIgZD0iTTg1My4zMzMzMzMgMTk1LjA0NzYxOWE3My4xNDI4NTcgNzMuMTQyODU3IDAgMCAxIDczLjE0Mjg1NyA3My4xNDI4NTd2NDg3LjYxOTA0OGE3My4xNDI4NTcgNzMuMTQyODU3IDAgMCAxLTczLjE0Mjg1NyA3My4xNDI4NTdIMTcwLjY2NjY2N2E3My4xNDI4NTcgNzMuMTQyODU3IDAgMCAxLTczLjE0Mjg1Ny03My4xNDI4NTdWMjY4LjE5MDQ3NmE3My4xNDI4NTcgNzMuMTQyODU3IDAgMCAxIDczLjE0Mjg1Ny03My4xNDI4NTdoNjgyLjY2NjY2NnogbTAgNzMuMTQyODU3SDE3MC42NjY2Njd2NDg3LjYxOTA0OGg2ODIuNjY2NjY2VjI2OC4xOTA0NzZ6IG0tMjI4LjAxMDY2NiAxMTkuODU2NzYyYzIzLjYwMDc2MiAwIDQ2LjEyODc2MiA1LjE2ODc2MiA2Ny41ODQgMTUuNTA2Mjg2bC0xMS45OTU0MjkgNDMuMzAwNTcxYTEyNi43ODA5NTIgMTI2Ljc4MDk1MiAwIDAgMC00OC41NjY4NTctMTAuMjRjLTYuODI2NjY3IDAtMTMuMDY4MTkgMS42NTc5MDUtMTguNzI0NTcxIDQuOTczNzE1YTE1LjM2IDE1LjM2IDAgMCAwLTcuODk5NDI5IDEzLjE2NTcxNGMwIDIuOTI1NzE0IDAuNjgyNjY3IDUuNjU2MzgxIDIuMDQ4IDguMTkyIDEuNzU1NDI5IDIuOTI1NzE0IDMuOTk4NDc2IDUuNDYxMzMzIDYuNzI5MTQzIDcuNjA2ODU3IDcuODAxOTA1IDUuNDYxMzMzIDE2LjM4NCA5LjY1NDg1NyAyNS43NDYyODYgMTIuNTgwNTcxIDExLjcwMjg1NyA0LjI5MTA0OCAyMi45MTgwOTUgOS41NTczMzMgMzMuNjQ1NzE0IDE1Ljc5ODg1OCA2LjA0NjQ3NiAzLjkwMDk1MiAxMS42MDUzMzMgOC4yODk1MjQgMTYuNjc2NTcxIDEzLjE2NTcxNCA1LjY1NjM4MSA2LjI0MTUyNCA5Ljg0OTkwNSAxMy4yNjMyMzggMTIuNTgwNTcyIDIxLjA2NTE0MyAyLjUzNTYxOSA4LjU4MjA5NSAzLjgwMzQyOSAxNy4yNjE3MTQgMy44MDM0MjggMjYuMDM4ODU3LTAuMTk1MDQ4IDguNTgyMDk1LTEuNDYyODU3IDE2Ljg3MTYxOS0zLjgwMzQyOCAyNC44Njg1NzEtMy4zMTU4MSA5Ljc1MjM4MS04LjU4MjA5NSAxOC4zMzQ0NzYtMTUuNzk4ODU3IDI1Ljc0NjI4NmE3Ni44IDc2LjggMCAwIDEtMjYuMzMxNDI5IDE2LjM4NGMtMTEuMzEyNzYyIDQuMDk2LTIyLjkxODA5NSA2LjE0NC0zNC44MTYgNi4xNDRhMTU5LjU3MzMzMyAxNTkuNTczMzMzIDAgMCAxLTg1LjEzODI4Ni0yMy40MDU3MTRsMTUuMjEzNzE1LTQzLjg4NTcxNWM5LjM2MjI4NiA1Ljg1MTQyOSAxOS4yMTIxOSAxMC40MzUwNDggMjkuNTQ5NzE0IDEzLjc1MDg1OGExMTAuMjAxOTA1IDExMC4yMDE5MDUgMCAwIDAgMzMuOTM4Mjg2IDUuMjY2Mjg1IDI3Ljc5NDI4NiAyNy43OTQyODYgMCAwIDAgMTcuODQ2ODU3LTUuNTU4ODU3IDE5LjY1MTA0OCAxOS42NTEwNDggMCAwIDAgNy4wMjE3MTQtMTQuMDQzNDI4IDIxLjg5NDA5NSAyMS44OTQwOTUgMCAwIDAtOC43NzcxNDMtMTcuMjYxNzE1IDEwNC4yNTI5NTIgMTA0LjI1Mjk1MiAwIDAgMC0yMS4xNjI2NjctMTIuMDY4NTcxbC01Ljc1MzkwNC0yLjI2NzQyOWExNTcuOTg4NTcxIDE1Ny45ODg1NzEgMCAwIDEtMzAuMTM0ODU3LTE0LjMzNiA4Mi42NTE0MjkgODIuNjUxNDI5IDAgMCAxLTE5Ljg5NDg1OC0xNy44NDY4NTdjLTMuNzA1OTA1LTQuODc2MTktNi42MzE2MTktMTAuMjQtOC43NzcxNDItMTYuMDkxNDI4LTIuOTI1NzE0LTguMzg3MDQ4LTQuMjkxMDQ4LTE3LjA2NjY2Ny00LjA5Ni0yNi4wMzg4NTggMC0xMC4xNDI0NzYgMS45NTA0NzYtMTkuODk0ODU3IDUuODUxNDI4LTI5LjI1NzE0MmE2Mi42NTkwNDggNjIuNjU5MDQ4IDAgMCAxIDE3LjI2MTcxNC0yMy4xMTMxNDNjOC4zODcwNDgtNi44MjY2NjcgMTcuNzQ5MzMzLTExLjYwNTMzMyAyOC4wODY4NTgtMTQuMzM2IDkuMTY3MjM4LTIuMzQwNTcxIDE4LjUyOTUyNC0zLjYwODM4MSAyOC4wODY4NTctMy44MDM0Mjl6IG0tMjQ0Ljg4MjI4NiA1Ljg1MTQyOWw0NS4zNDg1NzEgMTgzLjQ0MjI4NWgwLjU4NTE0M2w0NS4wNTYtMTgzLjQ0MjI4NWg2My43ODA1NzJsLTY0LjY1ODI4NiAyMzIuNTk0Mjg1aC04OS4yMzQyODZMMzE2Ljk1MjM4MSAzOTMuODk4NjY3aDYzLjQ4OHoiLz48L3N2Zz4=;" vertex="1" parent="1">
          <mxGeometry x="195" y="50" width="128" height="128" as="geometry" />
        </mxCell>
      </root>
    </mxGraphModel>
  </diagram>
</mxfile>
